<svg width="1920" height="1080" viewBox="0 0 1920 1080" fill="none" xmlns="http://www.w3.org/2000/svg">
<g clip-path="url(#clip0_70_2)">
<line x1="1053" y1="1027" x2="1053" y2="1058" stroke="black" stroke-width="2"/>
<line x1="921" y1="1057.5" x2="1052" y2="1057.5" stroke="black"/>
<line x1="869" y1="1057.5" x2="910" y2="1057.5" stroke="black"/>
<line x1="868" y1="1027" x2="868" y2="1058" stroke="black" stroke-width="2"/>
<line x1="700" y1="61" x2="700" y2="733" stroke="black" stroke-width="2"/>
<line x1="621" y1="821" x2="1302" y2="821" stroke="black" stroke-width="2"/>
<line x1="999" y1="1026" x2="389" y2="1026" stroke="black" stroke-width="2"/>
<line x1="1495" y1="1026" x2="1010" y2="1026" stroke="black" stroke-width="2"/>
<line x1="496" y1="61" x2="496" y2="822" stroke="black" stroke-width="2"/>
<line x1="388" y1="823" x2="388" y2="1027" stroke="black" stroke-width="2"/>
<line x1="1496" y1="820" x2="1496" y2="1027" stroke="black" stroke-width="2"/>
<line x1="535.5" y1="1025" x2="535.5" y2="1019" stroke="black"/>
<line x1="535.5" y1="835" x2="535.5" y2="824" stroke="black"/>
<line x1="535.5" y1="916" x2="535.5" y2="846" stroke="black"/>
<line x1="535.5" y1="1008" x2="535.5" y2="927" stroke="black"/>
<line x1="1347.5" y1="884" x2="1347.5" y2="821" stroke="black"/>
<line x1="1347.5" y1="975" x2="1347.5" y2="895" stroke="black"/>
<line x1="495" y1="60" x2="701" y2="60" stroke="black" stroke-width="2"/>
<line x1="574.5" y1="728" x2="574.5" y2="824" stroke="black"/>
<line x1="574.5" y1="636" x2="574.5" y2="717" stroke="black"/>
<line x1="574.5" y1="586" x2="574.5" y2="625" stroke="black"/>
<line x1="574.5" y1="560" x2="574.5" y2="575" stroke="black"/>
<line x1="574.5" y1="362" x2="574.5" y2="371" stroke="black"/>
<line x1="574.5" y1="184" x2="574.5" y2="211" stroke="black"/>
<line x1="574.5" y1="79" x2="574.5" y2="173" stroke="black"/>
<line x1="574.5" y1="222" x2="574.5" y2="351" stroke="black"/>
<line x1="574.5" y1="519" x2="574.5" y2="550" stroke="black"/>
<line x1="574.5" y1="461" x2="574.5" y2="508" stroke="black"/>
<line x1="574.5" y1="382" x2="574.5" y2="450" stroke="black"/>
<line x1="620.5" y1="60" x2="620.5" y2="69" stroke="black"/>
<line x1="620.5" y1="80" x2="620.5" y2="92" stroke="black"/>
<line x1="620.5" y1="103" x2="620.5" y2="133" stroke="black"/>
<line x1="620.5" y1="144" x2="620.5" y2="173" stroke="black"/>
<line x1="620.5" y1="184" x2="620.5" y2="237" stroke="black"/>
<line x1="701" y1="947" x2="701" y2="1025" stroke="black" stroke-width="2"/>
<line x1="621.5" y1="947" x2="621.5" y2="976" stroke="black"/>
<line x1="621.5" y1="997" x2="621.5" y2="1025" stroke="black"/>
<line x1="1270.5" y1="997" x2="1270.5" y2="1025" stroke="black"/>
<line x1="1270.5" y1="947" x2="1270.5" y2="976" stroke="black"/>
<line x1="1192" y1="947" x2="1192" y2="1025" stroke="black" stroke-width="2"/>
<line x1="496" y1="86" x2="574" y2="86" stroke="black" stroke-width="2"/>
<line x1="621" y1="110" x2="699" y2="110" stroke="black" stroke-width="2"/>
<line x1="621" y1="86" x2="699" y2="86" stroke="black" stroke-width="2"/>
<line x1="621" y1="161" x2="699" y2="161" stroke="black" stroke-width="2"/>
<line x1="621" y1="196" x2="699" y2="196" stroke="black" stroke-width="2"/>
<line x1="574" y1="198" x2="496" y2="198" stroke="black" stroke-width="2"/>
<line x1="621" y1="466" x2="699" y2="466" stroke="black" stroke-width="2"/>
<line x1="496" y1="493" x2="574" y2="493" stroke="black" stroke-width="2"/>
<line x1="574" y1="823" x2="387" y2="823" stroke="black" stroke-width="2"/>
<line x1="621" y1="709" x2="699" y2="709" stroke="black" stroke-width="2"/>
<line x1="699" y1="732" x2="620" y2="732" stroke="black" stroke-width="2"/>
<line x1="496" y1="238" x2="574" y2="238" stroke="black" stroke-width="2"/>
<line x1="699" y1="263" x2="621" y2="263" stroke="black" stroke-width="2"/>
<line x1="621" y1="301" x2="699" y2="301" stroke="black" stroke-width="2"/>
<line x1="621" y1="335" x2="699" y2="335" stroke="black" stroke-width="2"/>
<line x1="574" y1="365" x2="496" y2="365" stroke="black" stroke-width="2"/>
<line x1="496" y1="390" x2="574" y2="390" stroke="black" stroke-width="2"/>
<line x1="574" y1="568" x2="496" y2="568" stroke="black" stroke-width="2"/>
<line x1="496" y1="593" x2="574" y2="593" stroke="black" stroke-width="2"/>
<line x1="699" y1="568" x2="621" y2="568" stroke="black" stroke-width="2"/>
<line x1="621" y1="593" x2="699" y2="593" stroke="black" stroke-width="2"/>
<line x1="699" y1="541" x2="621" y2="541" stroke="black" stroke-width="2"/>
<line x1="621" y1="390" x2="699" y2="390" stroke="black" stroke-width="2"/>
<line x1="621" y1="946.5" x2="702" y2="946.5" stroke="black"/>
<line x1="1427" y1="425" x2="1427" y2="732" stroke="black" stroke-width="2"/>
<line x1="1223" y1="425" x2="1223" y2="732" stroke="black" stroke-width="2"/>
<line x1="1222" y1="424" x2="1428" y2="424" stroke="black" stroke-width="2"/>
<line x1="1301.5" y1="425" x2="1301.5" y2="502" stroke="black"/>
<line x1="1301.5" y1="513" x2="1301.5" y2="577" stroke="black"/>
<line x1="1347.5" y1="425" x2="1347.5" y2="431" stroke="black"/>
<line x1="1347.5" y1="442" x2="1347.5" y2="502" stroke="black"/>
<line x1="1347.5" y1="513" x2="1347.5" y2="577" stroke="black"/>
<line x1="1347.5" y1="588" x2="1347.5" y2="612" stroke="black"/>
<line x1="1347.5" y1="623" x2="1347.5" y2="701" stroke="black"/>
<line x1="1348" y1="684" x2="1426" y2="684" stroke="black" stroke-width="2"/>
<line x1="621" y1="684" x2="699" y2="684" stroke="black" stroke-width="2"/>
<line x1="496" y1="684" x2="574" y2="684" stroke="black" stroke-width="2"/>
<line x1="1348" y1="821" x2="1495" y2="821" stroke="black" stroke-width="2"/>
<line x1="535" y1="947" x2="388" y2="947" stroke="black" stroke-width="2"/>
<line x1="1495" y1="901" x2="1348" y2="901" stroke="black" stroke-width="2"/>
<line x1="1266" y1="821" x2="1266" y2="732" stroke="black" stroke-width="2"/>
<line x1="1386" y1="821" x2="1386" y2="732" stroke="black" stroke-width="2"/>
<line x1="1223" y1="731" x2="1301" y2="731" stroke="black" stroke-width="2"/>
<line x1="1348" y1="731" x2="1426" y2="731" stroke="black" stroke-width="2"/>
<line x1="1348" y1="515" x2="1426" y2="515" stroke="black" stroke-width="2"/>
<line x1="1301" y1="686" x2="1223" y2="686" stroke="black" stroke-width="2"/>
<line x1="1348" y1="593" x2="1426" y2="593" stroke="black" stroke-width="2"/>
<line x1="1301" y1="596" x2="1223" y2="596" stroke="black" stroke-width="2"/>
<line x1="1301" y1="516" x2="1223" y2="516" stroke="black" stroke-width="2"/>
<line x1="1348" y1="448" x2="1426" y2="448" stroke="black" stroke-width="2"/>
<line x1="621" y1="822" x2="621" y2="733" stroke="black" stroke-width="2"/>
<line x1="1301.5" y1="588" x2="1301.5" y2="612" stroke="black"/>
<line x1="1301.5" y1="623" x2="1301.5" y2="701" stroke="black"/>
<line x1="1301.5" y1="712" x2="1301.5" y2="744" stroke="black"/>
<line x1="1301.5" y1="755" x2="1301.5" y2="820" stroke="black"/>
<line x1="1347.5" y1="712" x2="1347.5" y2="744" stroke="black"/>
<line x1="1347.5" y1="755" x2="1347.5" y2="821" stroke="black"/>
<line x1="1347.5" y1="1025" x2="1347.5" y2="986" stroke="black"/>
<line x1="1191" y1="946.5" x2="1271" y2="946.5" stroke="black"/>
<line x1="574.5" y1="61" x2="574.5" y2="68" stroke="black"/>
<line x1="620.5" y1="248" x2="620.5" y2="277" stroke="black"/>
<line x1="620.5" y1="288" x2="620.5" y2="313" stroke="black"/>
<line x1="620.5" y1="324" x2="620.5" y2="351" stroke="black"/>
<line x1="620.5" y1="362" x2="620.5" y2="450" stroke="black"/>
<line x1="620.5" y1="461" x2="620.5" y2="508" stroke="black"/>
<line x1="620.5" y1="519" x2="620.5" y2="549" stroke="black"/>
<line x1="620.5" y1="560" x2="620.5" y2="575" stroke="black"/>
<line x1="620.5" y1="586" x2="620.5" y2="625" stroke="black"/>
<line x1="620.5" y1="636" x2="620.5" y2="691" stroke="black"/>
<line x1="620.5" y1="728" x2="620.5" y2="731" stroke="black"/>
<line x1="620.5" y1="702" x2="620.5" y2="717" stroke="black"/>
<path d="M659.101 65.8444C659.466 65.0952 660.534 65.0952 660.899 65.8444L663.094 70.3479C663.261 70.6917 663.61 70.9098 663.993 70.9098H669.907C670.969 70.9098 671.299 72.3468 670.343 72.8098L666.351 74.7434C665.853 74.9845 665.646 75.5841 665.888 76.0815L667.551 79.4922C667.967 80.3458 667.07 81.2443 666.216 80.8303L660.436 78.0308C660.161 77.8975 659.839 77.8975 659.564 78.0308L653.784 80.8303C652.93 81.2443 652.033 80.3458 652.449 79.4922L654.112 76.0815C654.354 75.5841 654.147 74.9845 653.649 74.7434L649.657 72.8098C648.701 72.3468 649.031 70.9098 650.093 70.9098H656.007C656.39 70.9098 656.739 70.6917 656.906 70.3479L659.101 65.8444Z" fill="#FF0000"/>
<path d="M660.101 977.844C660.466 977.095 661.534 977.095 661.899 977.844L664.094 982.348C664.261 982.692 664.61 982.91 664.993 982.91H670.907C671.969 982.91 672.299 984.347 671.343 984.81L667.351 986.743C666.853 986.985 666.646 987.584 666.888 988.081L668.551 991.492C668.967 992.346 668.07 993.244 667.216 992.83L661.436 990.031C661.161 989.897 660.839 989.897 660.564 990.031L654.784 992.83C653.93 993.244 653.033 992.346 653.449 991.492L655.112 988.081C655.354 987.584 655.147 986.985 654.649 986.743L650.657 984.81C649.701 984.347 650.031 982.91 651.093 982.91H657.007C657.39 982.91 657.739 982.692 657.906 982.348L660.101 977.844Z" fill="#FF0000"/>
<path d="M659.101 712.844C659.466 712.095 660.534 712.095 660.899 712.844L663.094 717.348C663.261 717.692 663.61 717.91 663.993 717.91H669.907C670.969 717.91 671.299 719.347 670.343 719.81L666.351 721.743C665.853 721.985 665.646 722.584 665.888 723.081L667.551 726.492C667.967 727.346 667.07 728.244 666.216 727.83L660.436 725.031C660.161 724.897 659.839 724.897 659.564 725.031L653.784 727.83C652.93 728.244 652.033 727.346 652.449 726.492L654.112 723.081C654.354 722.584 654.147 721.985 653.649 721.743L649.657 719.81C648.701 719.347 649.031 717.91 650.093 717.91H656.007C656.39 717.91 656.739 717.692 656.906 717.348L659.101 712.844Z" fill="#FF0000"/>
<path d="M1229.6 977.92C1229.96 977.155 1231.04 977.155 1231.4 977.92L1233.49 982.336C1233.65 982.686 1234 982.91 1234.39 982.91H1240.06C1241.12 982.91 1241.45 984.331 1240.51 984.804L1236.64 986.743C1236.15 986.986 1235.95 987.572 1236.18 988.063L1237.79 991.475C1238.2 992.334 1237.29 993.22 1236.44 992.795L1230.95 990.044C1230.67 989.903 1230.33 989.903 1230.05 990.044L1224.56 992.795C1223.71 993.22 1222.8 992.334 1223.21 991.475L1224.82 988.063C1225.05 987.572 1224.85 986.986 1224.36 986.743L1220.49 984.804C1219.55 984.331 1219.88 982.91 1220.94 982.91H1226.61C1227 982.91 1227.35 982.686 1227.51 982.336L1229.6 977.92Z" fill="#FF0000"/>
<path d="M1385.6 428.92C1385.96 428.155 1387.04 428.155 1387.4 428.92L1389.49 433.336C1389.65 433.686 1390 433.91 1390.39 433.91H1396.06C1397.12 433.91 1397.45 435.331 1396.51 435.804L1392.64 437.743C1392.15 437.986 1391.95 438.572 1392.18 439.063L1393.79 442.475C1394.2 443.334 1393.29 444.22 1392.44 443.795L1386.95 441.044C1386.67 440.903 1386.33 440.903 1386.05 441.044L1380.56 443.795C1379.71 444.22 1378.8 443.334 1379.21 442.475L1380.82 439.063C1381.05 438.572 1380.85 437.986 1380.36 437.743L1376.49 435.804C1375.55 435.331 1375.88 433.91 1376.94 433.91H1382.61C1383 433.91 1383.35 433.686 1383.51 433.336L1385.6 428.92Z" fill="#FF0000"/>
</g>
<defs>
<clipPath id="clip0_70_2">
<rect width="1920" height="1080" fill="white"/>
</clipPath>
</defs>
</svg>
